<?xml version="1.0" encoding="utf-8"?>
<svg version="1.1" xmlns:xlink="http://www.w3.org/1999/xlink" width="10px" height="6px" xmlns="http://www.w3.org/2000/svg">
  <g transform="matrix(1 0 0 1 -998 -66 )">
    <path d="M 10 1.3304347826087  C 10 1.43285024154589  9.96071133167907 1.5207729468599  9.88213399503722 1.59420289855072  L 5.27915632754342 5.88985507246377  C 5.20057899090157 5.96328502415459  5.10752688172043 6  5 6  C 4.89247311827957 6  4.79942100909843 5.96328502415459  4.72084367245658 5.88985507246377  L 0.117866004962779 1.59420289855072  C 0.0392886683209264 1.5207729468599  0 1.43285024154589  0 1.3304347826087  C 0 1.2280193236715  0.0392886683209264 1.14009661835749  0.117866004962779 1.06666666666667  L 1.14764267990074 0.110144927536232  C 1.2262200165426 0.0367149758454104  1.31927212572374 0  1.42679900744417 0  C 1.5343258891646 0  1.62737799834574 0.0367149758454104  1.70595533498759 0.110144927536232  L 5 3.18840579710145  L 8.29404466501241 0.110144927536232  C 8.37262200165426 0.0367149758454104  8.4656741108354 0  8.57320099255583 0  C 8.68072787427626 0  8.7737799834574 0.0367149758454104  8.85235732009926 0.110144927536232  L 9.88213399503722 1.06666666666667  C 9.96071133167907 1.14009661835749  10 1.2280193236715  10 1.3304347826087  Z " fill-rule="nonzero" fill="#0000ff" stroke="none" transform="matrix(1 0 0 1 998 66 )" />
  </g>
</svg>