<?xml version="1.0" encoding="utf-8"?>
<svg version="1.1" xmlns:xlink="http://www.w3.org/1999/xlink" width="10px" height="6px" xmlns="http://www.w3.org/2000/svg">
  <g transform="matrix(1 0 0 1 -998 -66 )">
    <path d="M 10 4.6695652173913  C 10 4.7719806763285  9.96071133167907 4.85990338164251  9.88213399503722 4.93333333333333  L 8.85235732009926 5.88985507246377  C 8.7737799834574 5.96328502415459  8.68072787427626 6  8.57320099255583 6  C 8.4656741108354 6  8.37262200165426 5.96328502415459  8.29404466501241 5.88985507246377  L 5 2.81159420289855  L 1.70595533498759 5.88985507246377  C 1.62737799834574 5.96328502415459  1.5343258891646 6  1.42679900744417 6  C 1.31927212572374 6  1.2262200165426 5.96328502415459  1.14764267990074 5.88985507246377  L 0.117866004962779 4.93333333333333  C 0.0392886683209264 4.85990338164251  0 4.7719806763285  0 4.6695652173913  C 0 4.56714975845411  0.0392886683209264 4.4792270531401  0.117866004962779 4.40579710144928  L 4.72084367245658 0.110144927536232  C 4.79942100909843 0.0367149758454104  4.89247311827957 0  5 0  C 5.10752688172043 0  5.20057899090157 0.0367149758454104  5.27915632754342 0.110144927536232  L 9.88213399503722 4.40579710144928  C 9.96071133167907 4.4792270531401  10 4.56714975845411  10 4.6695652173913  Z " fill-rule="nonzero" fill="#0000ff" stroke="none" transform="matrix(1 0 0 1 998 66 )" />
  </g>
</svg>